<svg width="20" height="20" viewBox="0 0 20 20" fill="none" xmlns="http://www.w3.org/2000/svg">
<path d="M10.6167 1.93335C10.5386 1.84742 10.4434 1.77876 10.3372 1.73178C10.231 1.68479 10.1161 1.66052 10 1.66052C9.88389 1.66052 9.76905 1.68479 9.66286 1.73178C9.55666 1.77876 9.46146 1.84742 9.38335 1.93335L1.88335 10.2667C1.77276 10.3859 1.69947 10.5349 1.67253 10.6953C1.64558 10.8557 1.66616 11.0205 1.73172 11.1693C1.79727 11.3181 1.90495 11.4445 2.04147 11.5329C2.17799 11.6213 2.33739 11.6678 2.50002 11.6667H4.16669V17.5C4.16669 17.721 4.25448 17.933 4.41076 18.0893C4.56704 18.2456 4.77901 18.3333 5.00002 18.3333H15C15.221 18.3333 15.433 18.2456 15.5893 18.0893C15.7456 17.933 15.8334 17.721 15.8334 17.5V11.6667H17.5C17.721 11.6667 17.933 11.5789 18.0893 11.4226C18.2456 11.2663 18.3334 11.0544 18.3334 10.8333C18.3349 10.6239 18.2575 10.4216 18.1167 10.2667L10.6167 1.93335Z" fill="#3858D6"/>
</svg>
